<svg width="375" height="171" viewBox="0 0 375 171" fill="none" xmlns="http://www.w3.org/2000/svg">
<g clip-path="url(#clip0)">
<path d="M91.9758 31.1437C106.724 49.217 145.255 60.3774 189 60.3774C231.449 60.3774 268.014 49.0112 284.564 32.6558C311.356 6.17911 346.69 -6.17604 379.247 3.01887V160H-4V34.717L1 31.1437C40.2 4.93417 71 5.43846 91.9758 31.1437Z" fill="#1A7289"/>
<path d="M143.976 82.3408C158.724 100.528 197.255 111.759 241 111.759C283.449 111.759 320.014 100.321 336.564 83.8625C363.356 57.2182 398.69 44.7849 431.247 54.038V171H-11V107.709C21 101.228 45 88.0964 53 82.3408C92.2 55.9654 123 56.4729 143.976 82.3408Z" fill="#926C59"/>
<path d="M48.9758 92.9662C63.7238 111.517 102.255 122.972 146 122.972C188.449 122.972 225.014 111.306 241.564 94.5182C268.356 67.3423 303.69 54.6609 336.247 64.0986C351.998 68.4022 384.7 77.939 389.5 81.6573V171H-47V96.6338L-42 92.9662C-2.8 66.0645 28 66.5821 48.9758 92.9662Z" fill="#498674"/>
</g>
<defs>
<clipPath id="clip0">
<rect width="375" height="171" fill="white"/>
</clipPath>
</defs>
</svg>
