<svg width="375" height="171" viewBox="0 0 375 171" fill="none" xmlns="http://www.w3.org/2000/svg">
    <path d="M90.9758 31.1437C105.724 49.217 144.255 60.3774 188 60.3774C230.449 60.3774 267.014 49.0112 283.564 32.6558C310.356 6.17911 345.69 -6.17604 378.247 3.01887V160H-5V34.717L0 31.1437C39.2 4.93417 70 5.43846 90.9758 31.1437Z"
          fill="#219653"/>
    <path d="M142.976 82.3408C157.724 100.528 196.255 111.759 240 111.759C282.449 111.759 319.014 100.321 335.564 83.8625C362.356 57.2182 397.69 44.7849 430.247 54.038V171H-12V107.709C20 101.228 44 88.0964 52 82.3408C91.2 55.9654 122 56.4729 142.976 82.3408Z"
          fill="#6FCF97"/>
    <path d="M47.9758 92.9662C62.7238 111.517 101.255 122.972 145 122.972C187.449 122.972 224.014 111.306 240.564 94.5182C267.356 67.3423 302.69 54.6609 335.247 64.0986C350.998 68.4022 383.7 77.939 388.5 81.6573V171H-48V96.6338L-43 92.9662C-3.8 66.0645 27 66.5821 47.9758 92.9662Z"
          fill="#27AE60"/>
</svg>
